<?xml version="1.0" encoding="iso-8859-1"?>
<!-- Generator: Adobe Illustrator 16.0.0, SVG Export Plug-In . SVG Version: 6.00 Build 0)  -->
<!DOCTYPE svg PUBLIC "-//W3C//DTD SVG 1.1//EN" "http://www.w3.org/Graphics/SVG/1.1/DTD/svg11.dtd">
<svg version="1.1" id="Capa_1" xmlns="http://www.w3.org/2000/svg" xmlns:xlink="http://www.w3.org/1999/xlink" x="0px" y="0px"
	 width="612px" height="612px" viewBox="0 0 612 612" style="enable-background:new 0 0 612 612; color-White" xml:space="preserve">
<g>
	<g id="Shape_393">
		<g>
			<path d="M407.807,125.369c-4.876-2.795-11.118-1.143-13.934,3.733l-86.7,149.991c-2.815,4.896-1.142,11.098,3.733,13.954
				c4.876,2.795,11.118,1.143,13.934-3.753l86.699-149.991C414.354,134.426,412.682,128.194,407.807,125.369z M183.406,125.369
				c-4.875-2.795-11.118-1.143-13.933,3.733l-86.7,149.991c-2.815,4.896-1.143,11.098,3.733,13.954
				c4.875,2.795,11.118,1.143,13.933-3.753l86.7-149.991C189.955,134.426,188.282,128.194,183.406,125.369z M295.606,125.369
				c-4.876-2.795-11.118-1.143-13.934,3.733l-86.7,149.991c-2.815,4.896-1.143,11.098,3.733,13.954
				c4.876,2.795,11.118,1.143,13.934-3.753l86.7-149.991C302.155,134.426,300.482,128.194,295.606,125.369z M520.006,125.369
				c-4.875-2.795-11.117-1.143-13.933,3.733l-86.7,149.991c-2.815,4.896-1.143,11.098,3.733,13.954
				c4.875,2.795,11.118,1.143,13.933-3.753l86.7-149.991C526.555,134.426,524.882,128.194,520.006,125.369z M591.6,41.086H316.2
				V10.537c0-5.641-4.569-10.18-10.2-10.18c-5.63,0-10.2,4.539-10.2,10.18v30.549H20.4C9.129,41.086,0,50.215,0,61.476V356.93
				c0,11.26,9.129,20.369,20.4,20.369h275.4v213.955H153c-5.63,0-10.2,4.57-10.2,10.189c0,5.621,4.57,10.199,10.2,10.199h306
				c5.631,0,10.2-4.568,10.2-10.199c0-5.619-4.569-10.189-10.2-10.189H316.2V377.299H591.6c11.261,0,20.4-9.109,20.4-20.369V61.476
				C612,50.215,602.871,41.086,591.6,41.086z M591.6,346.738c0,5.641-4.569,10.191-10.199,10.191H30.6
				c-5.63,0-10.2-4.561-10.2-10.191V71.666c0-5.641,4.57-10.189,10.2-10.189h550.8c5.63,0,10.199,4.559,10.199,10.189V346.738z"/>
		</g>
	</g>
</g>
<g>
</g>
<g>
</g>
<g>
</g>
<g>
</g>
<g>
</g>
<g>
</g>
<g>
</g>
<g>
</g>
<g>
</g>
<g>
</g>
<g>
</g>
<g>
</g>
<g>
</g>
<g>
</g>
<g>
</g>
</svg>
